<svg xmlns="http://www.w3.org/2000/svg" width="240" height="144"><path fill="#4c4c4c" d="M4 4h16v16H4z"/><path fill="#ec3f29" fill-opacity=".941" d="M28 4h16v16H28z"/><path fill="#4c4c4c" d="M52 4h16v16H52zm120 0h16v16h-16zm24 0h16v16h-16z"/><g fill="#fff"><path d="M7 11h10v2H7z"/><path d="M11 7h2v10h-2z"/></g><g fill="#fff"><path d="M31.757 14.828l7.071-7.07 1.415 1.414-7.071 7.07z"/><path d="M31.757 9.172l1.415-1.415 7.07 7.071-1.414 1.415z"/></g><path fill="#fff" d="M55 7h7v7h-7z"/><path fill="#fff" stroke="#4c4c4c" stroke-width="2" d="M58 10h7v7h-7z"/><path fill="#fff" d="M58 10h7v7h-7zm140 1h8v2h-8zm0-4h12v2h-12zm0 8h4v2h-4zm-24-2h8v-2h-8zm0 4h12v-2h-12zm0-8h4V7h-4z"/><path fill="#4c4c4c" d="M76 4h16v16H76z"/><path d="M85.104 6.016l-.015 1.406c3.027-.24.33 3.65 2.484 4.578-2.187 1.094.492 4.907-2.453 4.578L85.105 18c5.708.56 1.032-5.1 4.703-5.265v-1.407c-3.613-.027 1.119-5.707-4.703-5.312zm-2.323-.018l.016 1.407c-3.027-.24-.33 3.65-2.485 4.578 2.187 1.094-.491 4.907 2.454 4.578l.015 1.422c-5.708.559-1.032-5.1-4.703-5.266v-1.406c3.613-.027-1.119-5.707 4.703-5.313z" fill="#fff" stroke="#fff" stroke-width=".2"/><path fill="#4c4c4c" d="M100 4h16v16h-16z"/><path d="M103.719 5.672V18.39h3.031v-1.532h-1.344V7.234h1.375V5.672zm8.5 0v12.719h-3.032V16.86h1.344V7.235h-1.375V5.672z" fill="#fff"/><path fill="#4c4c4c" d="M124 4h16v16h-16z"/><path d="M126.282 17.603h1.79l1.141-2.864h5.654l1.149 2.864h1.765l-4.787-11.161h-1.919z" fill="#fff"/><path d="M129.727 13.479l4.609.01-2.305-5.55zM148 4h16v16h-16z" fill="#4c4c4c"/><path d="M156.477 5.892v2.18l.46 2.398h1.829l.398-2.399v-2.18zm-3.961-.002v2.18l.46 2.399h1.829l.398-2.399V5.89z" fill="#fff"/><path fill="#4c4c4c" fill-opacity=".984" d="M54 64h12v2H54zm26-12h3v3h-3zm5 0h3v3h-3zm-5 6h3v3h-3zm5 0h3v3h-3zm-5 6h3v3h-3zm5 0h3v3h-3z"/><circle cx="110.061" cy="57.939" r="4.744" fill="none" stroke="#4c4c4c" stroke-width="2" stroke-linecap="round" stroke-linejoin="round"/><path fill="#4c4c4c" fill-opacity=".984" d="M104.966 59.997l2.99 2.99-4.528 4.53-2.991-2.991z"/><path d="M125 56l13.77.095L132 64zm24 8l13.77-.095L156 56z" fill="#4c4c4c" fill-rule="evenodd"/><path fill="#4c4c4c" fill-opacity=".984" d="M54 53h12v2H54z"/><path fill="#4c4c4c" fill-opacity=".984" d="M56 53v13h-2V53zm10 0v13h-2V53z"/><path fill="#4c4c4c" fill-opacity=".984" d="M54 57h12v1H54z"/><path fill="#d3d3d3" d="M54 88h12v2H54zm26-12h3v3h-3zm5 0h3v3h-3zm-5 6h3v3h-3zm5 0h3v3h-3zm-5 6h3v3h-3zm5 0h3v3h-3z"/><circle r="4.744" cy="81.939" cx="110.061" fill="none" stroke="#d3d3d3" stroke-width="2" stroke-linecap="round" stroke-linejoin="round"/><path fill="#d3d3d3" d="M104.965 83.997l2.991 2.99-4.529 4.53-2.991-2.991z"/><path d="M125 80l13.77.095L132 88zm24 8l13.77-.095L156 80z" fill="#d3d3d3" fill-rule="evenodd"/><path fill="#d3d3d3" d="M54 77h12v2H54z"/><path fill="#d3d3d3" d="M56 77v13h-2V77zm10 0v13h-2V77z"/><path fill="#d3d3d3" d="M54 81h12v1H54z"/><path fill="#fff" fill-opacity=".8" d="M76 101h16v2H76zm0 4h16v2H76zm0 4h9v2h-9zm0 16h12v2H76zm0 12h10v2H76zm6-8h10v2H82zm0 4h9v2h-9z"/><path style="line-height:normal;text-indent:0;text-align:start;text-decoration-line:none;text-decoration-style:solid;text-decoration-color:#000;text-transform:none;block-progression:tb;white-space:normal;isolation:auto;mix-blend-mode:normal;solid-color:#000;solid-opacity:1" d="M36.398 100.025a8.228 8.228 0 00-1.265.062 7.861 7.861 0 00-4.508 2.227L29 100.599l-2.324 7.713 7.826-1.906-1.805-1.906a5.026 5.026 0 015.985-.721 4.915 4.915 0 012.308 5.55 4.988 4.988 0 01-4.83 3.696v3.074c3.55 0 6.71-2.411 7.65-5.941.94-3.53-.618-7.274-3.71-9.07a7.839 7.839 0 00-3.702-1.063zm23.325-.062a7.834 7.834 0 00-3.702 1.062c-3.092 1.797-4.65 5.54-3.71 9.07.94 3.53 4.097 5.942 7.648 5.942v-3.074a4.988 4.988 0 01-4.83-3.695 4.915 4.915 0 012.309-5.551 5.029 5.029 0 015.986.72l-1.807 1.907 7.828 1.906-2.324-7.713-1.627 1.717a7.856 7.856 0 00-4.506-2.229 7.754 7.754 0 00-1.265-.062z" color="#000" font-weight="400" font-family="sans-serif" overflow="visible" opacity=".8" fill="#fff"/><path d="M10.5 100v2H8l4 5 4-5h-2.5v-2h-3z" opacity=".8" fill="#fff"/><path d="M4.985 108.015l14.03-.03m-14.03 24.03l14.03-.03" opacity=".8" fill="none" stroke="#fff" stroke-width="1.966" stroke-linecap="square"/><path style="line-height:normal;text-indent:0;text-align:start;text-decoration-line:none;text-decoration-style:solid;text-decoration-color:#000;text-transform:none;block-progression:tb;white-space:normal;isolation:auto;mix-blend-mode:normal;solid-color:#000;solid-opacity:1" d="M36.398 123.963a8.228 8.228 0 00-1.265.062 7.861 7.861 0 00-4.508 2.226L29 124.538l-2.324 7.713 7.826-1.907-1.805-1.906a5.026 5.026 0 015.985-.72 4.915 4.915 0 012.308 5.55 4.988 4.988 0 01-4.83 3.695v3.075c3.55 0 6.71-2.41 7.65-5.94.94-3.53-.618-7.275-3.71-9.072a7.84 7.84 0 00-3.702-1.063zm23.325 0a7.835 7.835 0 00-3.702 1.062c-3.092 1.797-4.65 5.543-3.71 9.073.94 3.53 4.097 5.94 7.648 5.94v-3.075a4.988 4.988 0 01-4.83-3.695 4.915 4.915 0 012.309-5.551 5.029 5.029 0 015.986.72l-1.807 1.907 7.828 1.906-2.324-7.713-1.627 1.717a7.856 7.856 0 00-4.506-2.229 7.754 7.754 0 00-1.265-.062z" color="#000" font-weight="400" font-family="sans-serif" overflow="visible" opacity=".4" fill="#4d4d4d"/><path d="M10.5 116v-2H8l4-5 4 5h-2.5v2h-3zm0 13v-2H8l4-5 4 5h-2.5v2h-3zm0 6v2H8l4 5 4-5h-2.5v-2h-3z" opacity=".8" fill="#fff"/><path d="M16.667 60.073l-3.833 2.214L9 64.5v-8.854l3.834 2.214zm14.833 0l3.834 2.214 3.833 2.213v-8.854l-3.833 2.214zM11.934 88.455l-2.213-3.834-2.214-3.833h8.854l-2.213 3.833zm23.993-9.122l-2.214 3.833L31.5 87h8.854l-2.214-3.834z" fill="#4d4d4d" fill-opacity=".902"/><path d="M171.826 65.174h16.348L180 51.826z" fill="#fbb917" fill-rule="evenodd" stroke="#fbb917" stroke-width="1.652" stroke-linejoin="round"/><path d="M179 55v6h2v-6m-2 7v2h2v-2" fill="#fff" fill-rule="evenodd"/><path d="M99.994 113.022l2.006 1.962 7-6.956 3 .972 2-1 1-2v-3l-3 3-3-3 3-3h-3l-2 1-1 2 .994 3.022z" fill="#fff" fill-opacity=".8" fill-rule="evenodd" stroke="#fff" stroke-linejoin="round" stroke-opacity=".8"/><path fill="#4c4c4c" d="M220 4h16v16h-16z"/><path d="M234 6v2l-5 5v5h-2v-5l-5-5V6" fill="#fff" fill-rule="evenodd"/><g fill="#fff" fill-opacity=".8"><path d="M124 107h8v-2h-8zm0-4h10v-2h-10zm0 12h4v-2h-4zm0-4h6v-2h-6z"/><path d="M136 101v9h-3l4 5 4-5h-3v-9h-2" fill-rule="evenodd"/></g><path d="M164 100v3l-6 6v7h-4v-7l-6-6v-3" fill="#fff" fill-opacity=".8" fill-rule="evenodd"/><path fill="#4c4c4c" d="M4 28h16v16H4z"/><path d="M15 41v-7h-4v3l-5-4 5-4v3h6v9" fill="#fff" fill-rule="evenodd"/></svg>